<svg width="24" height="24" viewBox="0 0 24 24" fill="none" xmlns="http://www.w3.org/2000/svg">
<mask id="path-1-inside-1_96_914" fill="white">
<path d="M16.125 9.61035H19.5723L17.707 14.4102H13.9893L12.3916 18H6.93066L8.52734 14.4102H5.17188L7.04199 9.61035H10.6631L12.2695 6H17.7314L16.125 9.61035Z"/>
</mask>
<path d="M16.125 9.61035H19.5723L17.707 14.4102H13.9893L12.3916 18H6.93066L8.52734 14.4102H5.17188L7.04199 9.61035H10.6631L12.2695 6H17.7314L16.125 9.61035Z" fill="white"/>
<path d="M16.125 9.61035L15.2114 9.20382L14.5855 10.6104H16.125V9.61035ZM19.5723 9.61035L20.5044 9.97257L21.0337 8.61035H19.5723V9.61035ZM17.707 14.4102V15.4102H18.3913L18.6391 14.7724L17.707 14.4102ZM13.9893 14.4102V13.4102H13.3397L13.0757 14.0036L13.9893 14.4102ZM12.3916 18V19H13.0411L13.3052 18.4066L12.3916 18ZM6.93066 18L6.01697 17.5936L5.39143 19H6.93066V18ZM8.52734 14.4102L9.44104 14.8165L10.0666 13.4102H8.52734V14.4102ZM5.17188 14.4102L4.2401 14.0471L3.70903 15.4102H5.17188V14.4102ZM7.04199 9.61035V8.61035H6.35839L6.11022 9.24731L7.04199 9.61035ZM10.6631 9.61035V10.6104H11.3127L11.5767 10.0169L10.6631 9.61035ZM12.2695 6V5H11.62L11.3559 5.59347L12.2695 6ZM17.7314 6L18.6451 6.40653L19.2709 5H17.7314V6ZM16.125 9.61035V10.6104H19.5723V9.61035V8.61035H16.125V9.61035ZM19.5723 9.61035L18.6402 9.24813L16.7749 14.0479L17.707 14.4102L18.6391 14.7724L20.5044 9.97257L19.5723 9.61035ZM17.707 14.4102V13.4102H13.9893V14.4102V15.4102H17.707V14.4102ZM13.9893 14.4102L13.0757 14.0036L11.478 17.5934L12.3916 18L13.3052 18.4066L14.9029 14.8168L13.9893 14.4102ZM12.3916 18V17H6.93066V18V19H12.3916V18ZM6.93066 18L7.84436 18.4064L9.44104 14.8165L8.52734 14.4102L7.61365 14.0038L6.01697 17.5936L6.93066 18ZM8.52734 14.4102V13.4102H5.17188V14.4102V15.4102H8.52734V14.4102ZM5.17188 14.4102L6.10365 14.7732L7.97377 9.97339L7.04199 9.61035L6.11022 9.24731L4.2401 14.0471L5.17188 14.4102ZM7.04199 9.61035V10.6104H10.6631V9.61035V8.61035H7.04199V9.61035ZM10.6631 9.61035L11.5767 10.0169L13.1832 6.40653L12.2695 6L11.3559 5.59347L9.74945 9.20382L10.6631 9.61035ZM12.2695 6V7H17.7314V6V5H12.2695V6ZM17.7314 6L16.8178 5.59347L15.2114 9.20382L16.125 9.61035L17.0386 10.0169L18.6451 6.40653L17.7314 6Z" fill="#201A2F" mask="url(#path-1-inside-1_96_914)"/>
</svg>
