<svg width="129" height="19" viewBox="0 0 129 19" fill="none" xmlns="http://www.w3.org/2000/svg">
<mask id="mask0_145_878" style="mask-type:luminance" maskUnits="userSpaceOnUse" x="0" y="0" width="129" height="19">
<path d="M128.559 0H0V19H128.559V0Z" fill="white"/>
</mask>
<g mask="url(#mask0_145_878)">
<path d="M63.2921 19.0013C64.2902 19.0013 65.0993 18.2068 65.0993 17.2267C65.0993 16.2467 64.2902 15.4521 63.2921 15.4521C62.294 15.4521 61.4849 16.2467 61.4849 17.2267C61.4849 18.2068 62.294 19.0013 63.2921 19.0013Z" fill="white"/>
<path d="M42.9248 18.7686V0.121704H49.8084C53.068 0.121704 55.6889 0.985762 57.6617 2.72317C59.6345 4.43735 60.6186 6.6904 60.6186 9.47301C60.6186 12.2557 59.6535 14.5088 57.7185 16.2229C55.8025 17.9185 53.1957 18.7686 49.8983 18.7686H42.9248ZM46.9982 15.4843H49.6333C51.6251 15.4843 53.2383 14.9129 54.4684 13.7794C55.6984 12.6413 56.3134 11.2058 56.3134 9.47301C56.3134 7.74028 55.7079 6.27696 54.4967 5.13882C53.2856 3.9821 51.7433 3.40606 49.8698 3.40606H46.9982V15.4843Z" fill="white"/>
<path d="M23.3667 18.7686V0.121704H30.2503C33.5099 0.121704 36.1309 0.985762 38.1037 2.72317C40.0765 4.43735 41.0605 6.6904 41.0605 9.47301C41.0605 12.2557 40.0954 14.5088 38.1604 16.2229C36.2444 17.9185 33.6377 18.7686 30.3401 18.7686H23.3667ZM27.4401 15.4843H30.0753C32.067 15.4843 33.6802 14.9129 34.9103 13.7794C36.1403 12.6413 36.7553 11.2058 36.7553 9.47301C36.7553 7.74028 36.1498 6.27696 34.9386 5.13882C33.7275 3.9821 32.1853 3.40606 30.3118 3.40606H27.4401V15.4843Z" fill="white"/>
<path d="M68.5145 18.7686V0.121704H72.6733V15.4843H81.804V18.7686H68.5098H68.5145Z" fill="white"/>
<path d="M82.5166 18.7686L90.238 0.121704H94.2308L101.98 18.764H97.6655L96.2272 15.0337H88.2409L86.8316 18.764H82.5166V18.7686ZM89.4143 11.8887H95.0489L92.2578 4.59065H92.2013L89.4143 11.8887Z" fill="white"/>
<path d="M106.401 18.7686L99.8433 0.121704H104.234L108.274 12.7017H108.331L112.049 0.121704H116.383L120.045 12.6738H120.135L124.17 0.121704H128.561L122.003 18.764H118.2L114.277 5.50117H114.221L110.209 18.764H106.405L106.401 18.7686Z" fill="white"/>
<path fill-rule="evenodd" clip-rule="evenodd" d="M21.8237 18.768L14.117 0.00488281H9.88281L17.5943 18.768H21.8285H21.8237Z" fill="white"/>
<path fill-rule="evenodd" clip-rule="evenodd" d="M14.1139 0L11.7153 5.84401H7.48584L9.88441 0.00464547L14.1139 0Z" fill="white"/>
<path d="M9.2998 11.7236H12.7119L11.0654 15.5518H7.72754L6.40625 18.7686H2.17188L3.49316 15.5518H0L1.65137 11.7246L5.06543 11.7236L6.31152 8.69238H10.5459L9.2998 11.7236Z" fill="white"/>
</g>
</svg>
