<svg width="129" height="20" viewBox="0 0 129 20" fill="none" xmlns="http://www.w3.org/2000/svg">
<mask id="mask0_145_584" style="mask-type:luminance" maskUnits="userSpaceOnUse" x="0" y="0" width="129" height="20">
<path d="M128.559 0.5H0V19.5H128.559V0.5Z" fill="white"/>
</mask>
<g mask="url(#mask0_145_584)">
<path d="M63.2921 19.5013C64.2902 19.5013 65.0993 18.7068 65.0993 17.7267C65.0993 16.7467 64.2902 15.9521 63.2921 15.9521C62.294 15.9521 61.4849 16.7467 61.4849 17.7267C61.4849 18.7068 62.294 19.5013 63.2921 19.5013Z" fill="#201A2F"/>
<path d="M42.9248 19.2686V0.621704H49.8084C53.068 0.621704 55.6889 1.48576 57.6617 3.22317C59.6345 4.93735 60.6186 7.1904 60.6186 9.97301C60.6186 12.7557 59.6535 15.0088 57.7185 16.7229C55.8025 18.4185 53.1957 19.2686 49.8983 19.2686H42.9248ZM46.9982 15.9843H49.6333C51.6251 15.9843 53.2383 15.4129 54.4684 14.2794C55.6984 13.1413 56.3134 11.7058 56.3134 9.97301C56.3134 8.24028 55.7079 6.77696 54.4967 5.63882C53.2856 4.4821 51.7433 3.90606 49.8698 3.90606H46.9982V15.9843Z" fill="#201A2F"/>
<path d="M23.3667 19.2686V0.621704H30.2503C33.5099 0.621704 36.1309 1.48576 38.1037 3.22317C40.0765 4.93735 41.0605 7.1904 41.0605 9.97301C41.0605 12.7557 40.0954 15.0088 38.1604 16.7229C36.2444 18.4185 33.6377 19.2686 30.3401 19.2686H23.3667ZM27.4401 15.9843H30.0753C32.067 15.9843 33.6802 15.4129 34.9103 14.2794C36.1403 13.1413 36.7553 11.7058 36.7553 9.97301C36.7553 8.24028 36.1498 6.77696 34.9386 5.63882C33.7275 4.4821 32.1853 3.90606 30.3118 3.90606H27.4401V15.9843Z" fill="#201A2F"/>
<path d="M68.5145 19.2686V0.621704H72.6733V15.9843H81.804V19.2686H68.5098H68.5145Z" fill="#201A2F"/>
<path d="M82.5166 19.2686L90.238 0.621704H94.2308L101.98 19.264H97.6655L96.2272 15.5337H88.2409L86.8316 19.264H82.5166V19.2686ZM89.4143 12.3887H95.0489L92.2578 5.09065H92.2013L89.4143 12.3887Z" fill="#201A2F"/>
<path d="M106.401 19.2686L99.8433 0.621704H104.234L108.274 13.2017H108.331L112.049 0.621704H116.383L120.045 13.1738H120.135L124.17 0.621704H128.561L122.003 19.264H118.2L114.277 6.00117H114.221L110.209 19.264H106.405L106.401 19.2686Z" fill="#201A2F"/>
<path fill-rule="evenodd" clip-rule="evenodd" d="M21.8237 19.268L14.117 0.504883H9.88281L17.5943 19.268H21.8285H21.8237Z" fill="#201A2F"/>
<path fill-rule="evenodd" clip-rule="evenodd" d="M14.1139 0.5L11.7153 6.34401H7.48584L9.88441 0.504645L14.1139 0.5Z" fill="#201A2F"/>
<path d="M9.2998 12.2236H12.7119L11.0654 16.0518H7.72754L6.40625 19.2686H2.17188L3.49316 16.0518H0L1.65137 12.2246L5.06543 12.2236L6.31152 9.19238H10.5459L9.2998 12.2236Z" fill="#201A2F"/>
</g>
</svg>
