<svg width="140" height="34" viewBox="0 0 140 34" fill="none" xmlns="http://www.w3.org/2000/svg">
<path fill-rule="evenodd" clip-rule="evenodd" d="M51.4586 23.1509V13.2508C51.4586 10.9662 49.9883 9.59542 47.7013 9.59542C45.0875 9.59542 41.657 11.8801 39.86 13.5554V0H39.6966C38.5531 1.52308 35.776 2.58924 33.1622 2.43693V2.74155C34.6324 3.04616 35.1226 4.11232 35.1226 6.09232V23.1509C35.1226 24.674 34.4691 25.7401 33.1622 26.1971V26.5016H41.8203V26.1971C40.5134 25.5878 39.86 24.5216 39.86 23.1509V14.317C41.8203 12.9462 43.4539 12.1846 44.5975 12.1846C45.9043 12.1846 46.5577 13.0985 46.5577 14.7738V23.1509C46.5577 24.5216 45.9043 25.4355 44.5975 26.1971V26.5016H53.2555V26.1971C52.1121 25.7401 51.4586 24.674 51.4586 23.1509ZM27.4445 1.21846C24.9942 1.21846 22.3804 3.04616 20.2566 7.15848L17.4796 1.06616H17.3163C16.8262 1.98001 15.5192 2.58924 14.2123 2.58924H0V2.89385C1.14352 3.35078 2.12369 4.87386 3.10385 7.00617L11.9253 26.9586H12.252L17.9696 13.86L23.6873 26.8062H24.0141L28.9148 15.3831C29.2416 14.6216 29.4049 14.0123 29.7316 13.4032C31.2018 10.0523 32.0186 8.07234 32.0186 6.09232C32.0186 3.35078 30.385 1.21846 27.4445 1.21846ZM14.2123 19.9523L8.49475 6.85386C7.51459 4.72155 8.49475 3.19847 10.7818 3.19847C12.9055 3.19847 13.8857 4.41693 14.8658 6.85386L17.4796 12.6416L14.2123 19.9523ZM27.9347 15.0785L25.9743 19.8001L20.5834 7.92002C21.8904 6.09232 23.5239 5.48309 25.4843 5.48309C27.7713 5.48309 29.2416 7.00617 29.2416 9.59542C29.2416 11.1185 28.9148 12.9462 27.9347 15.0785ZM102.427 14.1647C102.427 11.5754 99.4866 9.59542 95.8926 9.59542C90.3384 9.59542 86.4177 14.1647 86.4177 18.8862C86.4177 24.0647 90.6651 27.1109 94.7492 27.1109C98.1797 27.1109 101.283 25.2831 102.427 21.9324L102.264 21.7801C101.12 23.3032 99.1599 24.217 97.1995 24.217C94.5857 24.217 92.4621 22.8462 91.4819 20.4093C96.7094 19.3432 102.427 17.9724 102.427 14.1647ZM91.1552 19.3432C90.9919 18.5817 90.8284 17.6677 90.8284 16.9062C90.8284 12.7939 92.7888 10.357 95.0758 10.357C96.8727 10.357 97.5262 11.8801 97.5262 13.4032C97.5262 16.6016 94.4224 18.7339 91.1552 19.3432ZM130.525 14.0123C131.995 11.1185 134.282 9.1385 136.57 9.1385C138.857 9.1385 140 10.8139 140 12.7939C140 14.9262 139.183 16.297 137.713 18.8862C137.55 19.1908 137.223 19.6478 137.06 19.9523L132.322 28.177C130.525 31.3754 128.728 33.3555 126.114 33.3555C124.318 33.3555 122.52 32.4417 122.52 30.9186C122.52 29.5478 123.501 28.7863 124.808 28.7863C125.951 28.7863 126.441 29.3955 126.931 30.0048C127.421 30.6139 127.911 31.0709 128.728 31.0709C129.709 31.0709 130.525 30.157 131.832 27.7201L132.322 26.9586L126.278 15.2308L125.788 15.0785C124.971 13.4032 124.318 12.3369 122.848 12.0324V11.7277C125.134 11.7277 127.258 10.8139 127.748 9.29081H128.074L130.525 14.0123ZM134.772 22.237L136.242 19.4955C137.223 17.8201 137.55 16.297 137.55 15.0785C137.55 13.4032 136.57 12.3369 134.772 12.3369C132.812 12.3369 131.505 13.4032 130.689 14.6216L134.772 22.237ZM109.942 12.4892C111.249 11.1185 113.699 9.44311 116.149 9.44311C119.58 9.44311 122.684 12.6416 122.684 17.2109C122.684 22.237 118.763 26.8062 113.045 26.8062C110.758 26.8062 108.798 25.8924 107.818 24.3693L105.531 26.8062H105.204V6.09232C105.204 4.26463 104.551 3.19847 103.081 2.74155V2.43693C105.694 2.43693 108.471 1.52308 109.778 0H109.942V12.4892ZM109.942 22.8462C109.942 24.674 111.085 25.8924 112.719 25.8924C115.659 25.8924 117.62 22.5416 117.62 18.1247C117.62 14.1647 116.149 11.7277 113.699 11.7277C112.229 11.7277 110.922 12.4892 109.778 13.5554V22.8462H109.942ZM83.6407 9.59542C81.6803 9.59542 79.7199 11.4231 78.7398 13.2508V9.29081H78.413C77.2696 10.8139 74.4924 11.7277 71.8787 11.7277V12.0324C73.3489 12.4892 74.0023 13.5554 74.0023 15.3831V22.9985C74.0023 24.5216 73.3489 25.5878 71.8787 26.1971V26.5016H80.8635V26.1971C79.3933 25.5878 78.9031 24.5216 78.9031 22.9985V14.0123C79.3933 13.4032 80.0467 12.7939 80.7002 12.7939C81.3535 12.7939 81.6803 13.0985 82.1704 13.4032C82.6604 13.7077 83.1505 14.1647 84.1307 14.1647C85.2742 14.1647 86.4177 13.4032 86.4177 11.8801C86.2544 10.5093 85.1109 9.59542 83.6407 9.59542ZM63.7107 9.59542C67.468 9.59542 70.245 11.5754 70.245 14.1647C70.245 18.1247 64.5275 19.4955 59.1365 20.257C60.1167 22.6939 62.2403 24.0647 64.8541 24.0647C66.8145 24.0647 68.7747 23.1509 69.9183 21.6278L70.0817 21.7801C69.1015 25.1308 65.8343 26.9586 62.4038 26.9586C58.1564 26.9586 54.0723 23.9124 54.0723 18.7339C54.3991 14.0123 58.1564 9.59542 63.7107 9.59542ZM58.8098 16.9062C58.8098 17.8201 58.9732 18.5817 59.1365 19.3432C62.4038 18.7339 65.5076 16.6016 65.5076 13.2508C65.5076 11.7277 64.8541 10.2047 63.0572 10.2047C60.6067 10.357 58.8098 12.7939 58.8098 16.9062Z" fill="#2A223F"/>
</svg>
