<svg width="56" height="57" viewBox="0 0 56 57" fill="none" xmlns="http://www.w3.org/2000/svg">
<path d="M21 41.2445L40.6 28.6445L21 16.0445V41.2445ZM28 56.6445C24.1267 56.6445 20.4867 55.9095 17.08 54.4395C13.6733 52.9695 10.71 50.9745 8.19 48.4545C5.67 45.9345 3.675 42.9712 2.205 39.5645C0.735 36.1579 0 32.5179 0 28.6445C0 24.7712 0.735 21.1312 2.205 17.7245C3.675 14.3179 5.67 11.3545 8.19 8.83453C10.71 6.31453 13.6733 4.31953 17.08 2.84953C20.4867 1.37953 24.1267 0.644531 28 0.644531C31.8733 0.644531 35.5133 1.37953 38.92 2.84953C42.3267 4.31953 45.29 6.31453 47.81 8.83453C50.33 11.3545 52.325 14.3179 53.795 17.7245C55.265 21.1312 56 24.7712 56 28.6445C56 32.5179 55.265 36.1579 53.795 39.5645C52.325 42.9712 50.33 45.9345 47.81 48.4545C45.29 50.9745 42.3267 52.9695 38.92 54.4395C35.5133 55.9095 31.8733 56.6445 28 56.6445ZM28 51.0445C34.2533 51.0445 39.55 48.8745 43.89 44.5345C48.23 40.1945 50.4 34.8979 50.4 28.6445C50.4 22.3912 48.23 17.0945 43.89 12.7545C39.55 8.41453 34.2533 6.24453 28 6.24453C21.7467 6.24453 16.45 8.41453 12.11 12.7545C7.77 17.0945 5.6 22.3912 5.6 28.6445C5.6 34.8979 7.77 40.1945 12.11 44.5345C16.45 48.8745 21.7467 51.0445 28 51.0445Z" fill="white"/>
</svg>
